<svg xmlns="http://www.w3.org/2000/svg" xmlns:xlink="http://www.w3.org/1999/xlink" version="1.1" x="0px" y="0px" viewBox="0 0 600 403.75" style="enable-background:new 0 0 600 323;" xml:space="preserve"><g><path d="M193.591,290.544c0-1.898-1.539-3.437-3.437-3.437H3.029c-1.898,0-3.437,1.539-3.437,3.437v29.125   c0,1.898,1.539,3.437,3.437,3.437h187.125c1.898,0,3.437-1.539,3.437-3.437V290.544z M185.591,315.107h-180v-20h180V315.107z"/><path d="M274.591,233.544c0-1.898-1.539-3.437-3.437-3.437H84.029c-1.898,0-3.437,1.539-3.437,3.437v29.125   c0,1.898,1.539,3.437,3.437,3.437h187.125c1.898,0,3.437-1.539,3.437-3.437V233.544z M266.591,259.107h-179v-22h179V259.107z"/><path d="M356.591,176.544c0-1.898-1.539-3.437-3.437-3.437H166.029c-1.898,0-3.437,1.539-3.437,3.437v29.125   c0,1.898,1.539,3.437,3.437,3.437h187.125c1.898,0,3.437-1.539,3.437-3.437V176.544z M348.591,202.107h-180v-22h180V202.107z"/><path d="M436.591,118.544c0-1.898-1.539-3.437-3.437-3.437H246.029c-1.898,0-3.437,1.539-3.437,3.437v29.125   c0,1.898,1.539,3.437,3.437,3.437h187.125c1.898,0,3.437-1.539,3.437-3.437V118.544z M428.591,143.107h-178v-22h178V143.107z"/><path d="M518.591,61.544c0-1.898-1.539-3.437-3.437-3.437H328.029c-1.898,0-3.437,1.539-3.437,3.437v29.125   c0,1.898,1.539,3.437,3.437,3.437h187.125c1.898,0,3.437-1.539,3.437-3.437V61.544z M511.591,87.107h-180v-23h180V87.107z"/><path d="M599.591,3.544c0-1.898-1.539-3.437-3.437-3.437H409.029c-1.898,0-3.437,1.539-3.437,3.437v29.125   c0,1.898,1.539,3.437,3.437,3.437h187.125c1.898,0,3.437-1.539,3.437-3.437V3.544z M591.591,30.107h-178v-22h178V30.107z"/></g></svg>