<svg xmlns="http://www.w3.org/2000/svg" xmlns:xlink="http://www.w3.org/1999/xlink" version="1.1" x="0px" y="0px" viewBox="0 0 100 105" enable-background="new 0 0 100 100" xml:space="preserve"><g><path fill="#000000" d="M42.479,91.137c-0.363,0-0.729-0.064-1.081-0.202c-1.157-0.446-1.918-1.56-1.918-2.798V50.14L10.158,15.812   c-0.76-0.891-0.933-2.142-0.444-3.204c0.491-1.063,1.555-1.745,2.725-1.745h75.122c1.173,0,2.236,0.681,2.726,1.745   c0.488,1.062,0.317,2.313-0.442,3.204L60.521,50.14v21.448c0,0.748-0.278,1.465-0.781,2.02L44.698,90.155   C44.12,90.794,43.308,91.137,42.479,91.137z M18.948,16.864l25.812,30.22c0.464,0.543,0.719,1.233,0.719,1.948v31.342l9.042-9.947   V49.033c0-0.715,0.255-1.405,0.72-1.948l25.813-30.22H18.948z"/></g></svg>