<svg xmlns="http://www.w3.org/2000/svg" xmlns:xlink="http://www.w3.org/1999/xlink" version="1.1" x="0px" y="0px" viewBox="0 0 100 105" enable-background="new 0 0 100 100" xml:space="preserve"><path d="M30.785,45.73c-0.124-0.897-0.19-1.813-0.19-2.744c0-10.949,8.876-19.826,19.826-19.826  c10.949,0,19.826,8.877,19.826,19.826c0,1.169-0.102,2.314-0.296,3.428c-0.297,0.546-0.614,0.895-0.945,0.895  c-1.041,0-1.938-3.423-2.532-5.687c-0.925-3.526-1.799-6.857-4.049-6.857s-3.125,3.331-4.05,6.857  c-0.594,2.264-1.491,5.687-2.532,5.687s-1.938-3.423-2.532-5.687c-0.925-3.526-1.799-6.857-4.049-6.857s-3.124,3.331-4.049,6.857  c-0.594,2.265-1.492,5.687-2.532,5.687s-1.938-3.423-2.533-5.687c-0.925-3.526-1.799-6.857-4.049-6.857  c-2.25,0-3.124,3.331-4.049,6.857C31.714,42.896,31.283,44.539,30.785,45.73z M69.005,48.876c-2.25,0-3.124-3.33-4.05-6.856  c-0.594-2.265-1.491-5.687-2.531-5.687c-1.041,0-1.939,3.422-2.533,5.687c-0.925,3.526-1.799,6.856-4.049,6.856  s-3.124-3.33-4.049-6.856c-0.594-2.265-1.492-5.687-2.532-5.687c-1.041,0-1.938,3.422-2.532,5.687  c-0.925,3.526-1.799,6.856-4.049,6.856s-3.124-3.33-4.049-6.856c-0.594-2.265-1.492-5.687-2.533-5.687  c-1.041,0-1.938,3.422-2.533,5.687c-0.641,2.442-1.257,4.79-2.324,6.003c2.229,8.51,9.97,14.79,19.179,14.79  c8.91,0,16.447-5.879,18.946-13.969C69.249,48.864,69.13,48.876,69.005,48.876z M76.235,74.153l-3.497,3.497l-0.539-0.54  l3.495-3.496c-1.725-1.452-4.302-1.367-5.925,0.257c-1.714,1.714-1.714,4.493,0,6.207c1.714,1.716,4.493,1.716,6.208,0  C77.601,78.456,77.686,75.878,76.235,74.153z M57.04,73.612l3.497,3.497l-0.54,0.539l-3.496-3.495  c-1.452,1.725-1.367,4.302,0.257,5.925c1.714,1.714,4.493,1.714,6.207,0c1.716-1.714,1.716-4.493,0-6.208  C61.343,72.247,58.765,72.162,57.04,73.612z M88,83.5v-66c0-4.136-3.364-7.5-7.5-7.5h-61c-4.136,0-7.5,3.364-7.5,7.5v66  c0,4.136,3.364,7.5,7.5,7.5h61C84.636,91,88,87.636,88,83.5z M80.5,15c1.379,0,2.5,1.122,2.5,2.5v66c0,1.379-1.121,2.5-2.5,2.5h-61  c-1.378,0-2.5-1.121-2.5-2.5v-66c0-1.378,1.122-2.5,2.5-2.5H80.5z"/></svg>