<svg xmlns="http://www.w3.org/2000/svg" xmlns:xlink="http://www.w3.org/1999/xlink" version="1.1" x="0px" y="0px" viewBox="0 0 100 105" enable-background="new 0 0 100 100" xml:space="preserve"><g><path d="M49.939,19.186c-15.62,0-28.282,12.662-28.282,28.281s12.662,28.281,28.282,28.281s28.282-12.662,28.282-28.281   S65.56,19.186,49.939,19.186z M49.939,54.251c-3.747,0-6.784-3.038-6.784-6.784c0-3.747,3.037-6.784,6.784-6.784   s6.784,3.037,6.784,6.784C56.724,51.214,53.687,54.251,49.939,54.251z"/><path d="M89.681,69.015c3.479-6.405,5.456-13.746,5.456-21.547s-1.978-15.142-5.456-21.547c2.173-1.452,3.606-3.925,3.606-6.734   c0-4.469-3.623-8.093-8.093-8.093c-2.182,0-4.157,0.867-5.612,2.271C71.646,6.46,61.284,2.27,49.939,2.27   c-11.296,0-21.616,4.154-29.539,11.004c-1.446-1.349-3.38-2.181-5.513-2.181c-4.47,0-8.093,3.624-8.093,8.093   c0,2.746,1.372,5.168,3.463,6.632c-3.515,6.429-5.516,13.805-5.516,21.649s2.001,15.22,5.516,21.649   c-2.091,1.463-3.463,3.886-3.463,6.632c0,4.469,3.623,8.093,8.093,8.093c2.133,0,4.066-0.832,5.513-2.181   c7.923,6.85,18.243,11.004,29.539,11.004c11.345,0,21.706-4.19,29.643-11.095c1.455,1.403,3.431,2.271,5.612,2.271   c4.47,0,8.093-3.624,8.093-8.093C93.287,72.939,91.854,70.466,89.681,69.015z M15.138,16.045c1.734,0,3.141,1.406,3.141,3.141   c0,1.734-1.406,3.141-3.141,3.141s-3.141-1.406-3.141-3.141C11.997,17.451,13.403,16.045,15.138,16.045z M14.786,78.889   c-1.735,0-3.142-1.406-3.142-3.141s1.406-3.141,3.142-3.141c1.734,0,3.141,1.406,3.141,3.141S16.521,78.889,14.786,78.889z    M49.939,82.621c-19.415,0-35.153-15.739-35.153-35.154s15.738-35.154,35.153-35.154s35.153,15.739,35.153,35.154   S69.354,82.621,49.939,82.621z M84.652,78.889c-1.734,0-3.141-1.406-3.141-3.141s1.406-3.141,3.141-3.141s3.141,1.406,3.141,3.141   S86.387,78.889,84.652,78.889z M85.181,22.327c-1.734,0-3.141-1.406-3.141-3.141c0-1.735,1.406-3.141,3.141-3.141   s3.141,1.406,3.141,3.141C88.321,20.92,86.915,22.327,85.181,22.327z"/></g></svg>